<svg width="88" height="48" viewBox="0 0 88 48" fill="none" xmlns="http://www.w3.org/2000/svg">
<path d="M3.95182 20.0735C2.78309 15.4366 10.3554 10.0561 15.7677 9.23544C20.8128 8.47033 22.0183 11.0804 20.1122 13.8477C18.2061 16.6151 15.1588 17.7689 12.9468 18.5371C13.1763 14.8473 13.4302 13.0548 10.3034 13.6688C6.92873 14.3321 6.10266 15.2823 6.10266 15.2823C8.09135 19.7157 6.36578 27.3267 6.52488 32.7318C6.61666 34.0554 6.61666 36.215 8.42177 36.215C10.4808 36.215 15.3852 34.6786 15.3852 34.6786C12.3349 31.8094 12.497 28.4682 12.7418 20.7924C14.8774 23.0229 20.0846 20.4838 21.3941 19.5244C22.6516 22.2023 22.312 27.7401 22.0152 30.9641C21.749 33.8857 22.3212 36.7549 28.6482 35.2185C27.3143 33.9875 27.2011 29.6837 27.7334 25.7625C28.2658 21.8413 29.9057 16.4238 34.8223 15.924C35.5872 15.8469 36.2328 15.8561 36.759 15.6525C37.6432 15.3101 38.1939 14.6128 38.4448 13.4096C38.8028 11.685 37.6646 9.55013 35.4434 9.55013C32.3839 9.55013 29.2387 11.7005 27.4122 21.7673C27.4917 20.7893 27.351 19.7342 27.3755 19.1356C27.4244 17.7905 26.5188 17.2537 25.4327 17.3679C24.2119 17.4974 23.6214 17.6949 23.6214 17.6949C25.2797 16.3868 27.6019 13.4436 28.0853 8.92076C28.6329 3.80252 26.3475 -0.6771 19.794 0.0849288C13.2069 0.850043 7.62936 4.88849 4.23942 8.12479C-0.622152 12.7587 -2.04177 19.8452 3.95182 20.0735Z" fill="#4B32B0"/>
<path d="M31.772 18.8889C33.4272 24.3804 31.518 29.4308 31.928 33.4507C32.1819 35.9373 33.3782 35.6535 35.1038 35.5949C36.3459 35.5517 37.8115 35.2062 39.2433 34.7557C35.9146 30.091 37.068 26.7745 37.8971 22.4059C38.2275 20.6628 38.6834 17.7412 36.45 17.7412C34.088 17.7443 31.772 18.8889 31.772 18.8889Z" fill="#4B32B0"/>
<path d="M46.3476 16.7384C45.2187 15.9239 41.8134 17.0778 40.5438 19.3083C39.9349 20.5115 39.5616 24.007 39.632 27.5086C39.7116 31.2879 40.9262 35.5793 43.4901 36.1161C45.4481 36.5265 48.6729 34.8605 50.9033 27.7647C52.2219 23.5689 52.6808 17.0808 52.586 16.4669C55.1499 16.4854 57.2518 15.9764 58.5582 15.1094C59.7391 14.3227 60.6172 13.5206 60.6172 11.9842C60.6172 10.6638 59.528 9.43896 57.9248 9.39576C55.7893 10.9075 54.2657 11.6263 52.3596 12.086C51.6743 7.24234 49.9456 6.80733 48.269 7.88405C46.5924 8.96076 46.3109 13.6749 49.5387 15.7758C50.1751 22.0788 48.0671 29.2054 46.2344 29.5078C44.5303 29.7854 44.1509 21.8906 46.3476 16.7384Z" fill="#4B32B0"/>
<path d="M59.0413 27.12C59.231 28.1536 59.8001 29.0575 60.4395 29.0698C61.4339 29.0945 62.1467 27.7155 62.5261 26.9102C62.5261 25.7564 62.5537 20.9559 61.7918 18.6513C62.7066 18.3428 64.9156 17.8245 65.757 17.8245C66.8247 17.8245 68.483 17.7875 68.3239 19.5954C68.0853 22.3535 67.5284 30.6463 66.993 36.505C72.6348 38.2111 77.5697 42.0768 87.556 38.6368C88.8716 42.231 87.2133 46.0751 83.2482 46.3805C78.2704 46.7662 73.0723 42.6537 66.1731 40.0406C64.3068 44.3845 60.6445 46.7107 57.4443 46.9852C53.6902 47.3061 51.1172 45.02 51.1172 42.1169C51.1172 36.3724 56.606 34.9686 62.4955 35.4499C62.4955 35.4499 62.5537 32.6054 62.4955 30.5291C61.4278 33.2193 60.0143 35.0519 56.7283 34.0894C53.2221 33.0651 52.2309 27.0676 53.73 18.9475C53.935 18.2564 55.2537 17.2044 59.7267 17.9232C59.5829 18.5927 58.4049 23.6616 59.0413 27.12ZM62.0366 38.8312C58.9128 38.3314 56.2419 38.9083 56.2419 41.5585C56.2419 43.6903 58.3866 45.3254 60.0907 43.2491C61.801 41.1728 62.0305 38.9824 62.0366 38.8312Z" fill="#4B32B0"/>
</svg>
