<svg width="69" height="69" viewBox="0 0 69 69" fill="none" xmlns="http://www.w3.org/2000/svg">
<rect x="3.85693" y="22.3691" width="48.5598" height="26.9777" fill="#F9F3FE"/>
<path d="M28.1369 8.34058H18.4249L15.1876 19.1316L27.0578 18.5921L28.1369 8.34058Z" fill="#00ECFF"/>
<path d="M44.8631 8.34058H38.3884L41.0862 19.1316L52.4168 18.5921L44.8631 8.34058Z" fill="#00ECFF"/>
<path d="M27.5973 8.34058H37.3093L40.5466 19.1316L28.6765 18.5921L27.5973 8.34058Z" fill="#AD1BE0"/>
<path d="M9.79207 8.34058H18.4249L13.5689 19.1316L2.23832 18.5921L9.79207 8.34058Z" fill="#AD1BE0"/>
<circle cx="54.2396" cy="53.663" r="12.9493" fill="#00ECFF" stroke="#4B32B0" stroke-width="3"/>
<path d="M58.8913 48.9741C57.7141 47.8449 56.7807 47.2802 54.7711 47.2802C51.2395 47.2802 50.6509 49.5388 50.6509 50.6681C50.6509 52.9266 52.4167 54.0559 54.7711 54.0559C57.1255 54.0559 58.8914 55.1675 58.8914 57.4261C58.8914 59.6846 56.537 60.2669 54.7711 60.2669C52.2206 60.2669 50.6509 58.6436 50.2585 57.8319M54.7711 45.0304V62.2961" stroke="#4B32B0" stroke-width="3" stroke-linecap="round"/>
<rect x="8.17334" y="1.86597" width="36.6896" height="6.47464" fill="#E2C1FC" stroke="#4B32B0" stroke-width="3" stroke-linecap="round" stroke-linejoin="round"/>
<rect x="12.4899" y="32.081" width="10.7911" height="17.2657" fill="#E2C1FC" stroke="#4B32B0" stroke-width="3" stroke-linecap="round" stroke-linejoin="round"/>
<rect x="31.9138" y="32.081" width="10.7911" height="8.63286" fill="#00ECFF" stroke="#4B32B0" stroke-width="3" stroke-linecap="round" stroke-linejoin="round"/>
<path d="M8.17337 8.34058H44.863L53.4959 19.1316H1.69873L8.17337 8.34058Z" stroke="#4B32B0" stroke-width="3" stroke-linecap="round" stroke-linejoin="round"/>
<path d="M8.17337 25.6063C11.7492 25.6063 14.648 22.7075 14.648 19.1317H1.69873C1.69873 22.7075 4.59753 25.6063 8.17337 25.6063Z" fill="#AD1BE0" stroke="#4B32B0" stroke-width="3" stroke-linecap="round" stroke-linejoin="round"/>
<path d="M21.1227 25.6063C24.6986 25.6063 27.5974 22.7075 27.5974 19.1317H14.6481C14.6481 22.7075 17.5469 25.6063 21.1227 25.6063Z" fill="#00ECFF" stroke="#4B32B0" stroke-width="3" stroke-linecap="round" stroke-linejoin="round"/>
<path d="M34.0719 25.6063C37.6478 25.6063 40.5466 22.7075 40.5466 19.1317H27.5973C27.5973 22.7075 30.4961 25.6063 34.0719 25.6063Z" fill="#AD1BE0" stroke="#4B32B0" stroke-width="3" stroke-linecap="round" stroke-linejoin="round"/>
<path d="M47.0213 25.6063C50.5971 25.6063 53.4959 22.7075 53.4959 19.1317H40.5466C40.5466 22.7075 43.4454 25.6063 47.0213 25.6063Z" fill="#00ECFF" stroke="#4B32B0" stroke-width="3" stroke-linecap="round" stroke-linejoin="round"/>
<path d="M27.5973 19.1316V8.34058" stroke="#4B32B0" stroke-width="3"/>
<path d="M3.85693 49.3467H2.35693C2.35693 50.1751 3.02851 50.8467 3.85693 50.8467L3.85693 49.3467ZM49.8376 36.3974C49.8376 37.2258 50.5092 37.8974 51.3376 37.8974C52.1661 37.8974 52.8376 37.2258 52.8376 36.3974H49.8376ZM36.7697 50.8467C37.5981 50.8467 38.2697 50.1751 38.2697 49.3467C38.2697 48.5183 37.5981 47.8467 36.7697 47.8467V50.8467ZM5.35693 49.3467V23.4481H2.35693V49.3467H5.35693ZM52.8376 36.3974V23.4481H49.8376V36.3974H52.8376ZM3.85693 50.8467H36.7697V47.8467H3.85693V50.8467Z" fill="#4B32B0"/>
<path d="M14.6481 19.1316L18.9645 8.34058" stroke="#4B32B0" stroke-width="3"/>
<path d="M40.5466 19.1316L38.3884 8.34058" stroke="#4B32B0" stroke-width="3"/>
</svg>
